# xmcd CD database file
#
# Track frame offsets:
#	150
#	12099
#	29114
#	41247
#	52751
#	75965
#	114766
#	139140
#	154901
#	175423
#	192663
#	214676
#	229840
#	254606
#	271543
#	295456
#	314434
#
# Disc length: 4524 seconds
#
# Revision: 4
# Processed by: cddbd v1.5.2PL0 Copyright (c) Steve Scherf et al.
# Submitted via: CDex 1.51
#
DISCID=f011aa11
DTITLE=B.B. KING - Greatest Hits
DYEAR=1998
DGENRE=Blues
TTITLE0=Every Day I Have The Blues(Live)
TTITLE1=Sweet Little Angel(Live)
TTITLE2=Hot Blue Can You Got?
TTITLE3=Paying The Cost To Be The Boss
TTITLE4=Don't Answer The Door
TTITLE5=Why I Sing The Blues
TTITLE6=The Thrill Is Gone
TTITLE7=I Like To Live The Love
TTITLE8=Hummingbird
TTITLE9=To Know You Is To Love You
TTITLE10=Chains And Thing
TTITLE11=Better Not Look Down
TTITLE12=Never Make A Move Too Soon
TTITLE13=Threr Must Be A Better World Somewhere
TTITLE14=Playn' With My Friends(With Robert Cray)
TTITLE15=When Love Comes To Town(With U2)
TTITLE16=Let The Good Times Roll(Bonus)
EXTD=YEAR: 1998
EXTT0=
EXTT1=
EXTT2=
EXTT3=
EXTT4=
EXTT5=
EXTT6=
EXTT7=
EXTT8=
EXTT9=
EXTT10=
EXTT11=
EXTT12=
EXTT13=
EXTT14=
EXTT15=
EXTT16=
PLAYORDER=
